# xmcd
#
# Track frame offsets:
#	150
#	4953
#	15535
#	28469
#	50082
#	58443
#	71047
#	84760
#	98886
#	107790
#	116456
#	131856
#	151893
#	165640
#	172222
#	185752
#	200902
#	214566
#	222070
#	234316
#	245198
#	260374
#	270730
#	288383
#
# Disc length: 3904 seconds
# Revision: 0
# Processed by: cddbd v1.5.2PL0 Copyright (c) Steve Scherf et al.
# Submitted via: dBpowerAMP V12.0
#
DISCID=720f3e18
DTITLE=Randy Kaplan - Mr. Diddie Wah Diddie
DYEAR=2012
DGENRE=Intro
TTITLE0=The Fathers of the Blues
TTITLE1=They're Red Hot
TTITLE2=Runaway Blues
TTITLE3=In a Timeout Now
TTITLE4=Reading Glasses Kaplan
TTITLE5=Kindhearted Babysitter Blues
TTITLE6=Diddie Wah Diddie
TTITLE7=Ice Cream Man Rag
TTITLE8=Oh Papa Oh Mama
TTITLE9=Kickball Kaplan
TTITLE10=Sugar Sweet
TTITLE11=You've Been a Good Old Wagon
TTITLE12=Gettin' Along
TTITLE13=Mayor Kaplan
TTITLE14=Shake That Thing
TTITLE15=That Will Never Happen No More
TTITLE16=Black Mountain Blues
TTITLE17=Papa Waffle Kaplan
TTITLE18=Move To Kansas City
TTITLE19=Way Down In Arkansas
TTITLE20=Green Green Rocky Road
TTITLE21=Kiwi Kaplan
TTITLE22=So Different Blues
TTITLE23=Mr. Diddie Wah Diddie
EXTD=
EXTT0=
EXTT1=
EXTT2=
EXTT3=
EXTT4=
EXTT5=
EXTT6=
EXTT7=
EXTT8=
EXTT9=
EXTT10=
EXTT11=
EXTT12=
EXTT13=
EXTT14=
EXTT15=
EXTT16=
EXTT17=
EXTT18=
EXTT19=
EXTT20=
EXTT21=
EXTT22=
EXTT23=
PLAYORDER=
